<mxfile host="app.diagrams.net" modified="2023-10-09T09:21:00.954Z" agent="Mozilla/5.0 (Windows NT 10.0; Win64; x64) AppleWebKit/537.36 (KHTML, like Gecko) Chrome/117.0.0.0 Safari/537.36" etag="eIJt1wdYQxl2-ELcQjCX" version="22.0.4" type="github">
  <diagram name="Page-1" id="olm9c_AXDBSFhyzIpc0j">
    <mxGraphModel dx="2284" dy="750" grid="1" gridSize="10" guides="1" tooltips="1" connect="1" arrows="1" fold="1" page="1" pageScale="1" pageWidth="850" pageHeight="1100" math="0" shadow="0">
      <root>
        <mxCell id="0" />
        <mxCell id="1" parent="0" />
        <mxCell id="Ihpz_ery8-bUaTA76cwm-14" value="ZFP_DN010&lt;br&gt;IPL - BU/BC/VOL Consolidation (acc)" style="sketch=0;shadow=0;dashed=0;html=1;strokeColor=none;labelPosition=center;verticalLabelPosition=bottom;verticalAlign=top;outlineConnect=0;align=center;shape=mxgraph.office.databases.database_mini_1;fillColor=#2072B8;fontSize=10;" parent="1" vertex="1">
          <mxGeometry x="-760" y="79" width="51.85" height="40" as="geometry" />
        </mxCell>
        <mxCell id="-KhQLRqO_MwmeqYD8F9i-2" style="edgeStyle=orthogonalEdgeStyle;rounded=0;orthogonalLoop=1;jettySize=auto;html=1;" edge="1" parent="1" source="Ihpz_ery8-bUaTA76cwm-17" target="Ihpz_ery8-bUaTA76cwm-35">
          <mxGeometry relative="1" as="geometry" />
        </mxCell>
        <mxCell id="Ihpz_ery8-bUaTA76cwm-17" value="ZFP_PN072&lt;br&gt;IPL - N - BC Extract to SAC (Account)" style="sketch=0;shadow=0;dashed=0;html=1;strokeColor=none;labelPosition=center;verticalLabelPosition=bottom;verticalAlign=top;outlineConnect=0;align=center;shape=mxgraph.office.databases.database_mini_1;fillColor=#2072B8;fontSize=10;" parent="1" vertex="1">
          <mxGeometry x="-562" y="78" width="51.85" height="41" as="geometry" />
        </mxCell>
        <mxCell id="Ihpz_ery8-bUaTA76cwm-18" style="edgeStyle=orthogonalEdgeStyle;rounded=0;orthogonalLoop=1;jettySize=auto;html=1;" parent="1" source="Ihpz_ery8-bUaTA76cwm-14" target="Ihpz_ery8-bUaTA76cwm-17" edge="1">
          <mxGeometry relative="1" as="geometry">
            <mxPoint x="-280" y="-126" as="sourcePoint" />
            <mxPoint x="-270" y="-250" as="targetPoint" />
          </mxGeometry>
        </mxCell>
        <mxCell id="Ihpz_ery8-bUaTA76cwm-32" value="Middleware" style="sketch=0;pointerEvents=1;shadow=0;dashed=0;html=1;strokeColor=none;fillColor=#505050;labelPosition=center;verticalLabelPosition=bottom;outlineConnect=0;verticalAlign=top;align=center;shape=mxgraph.office.clouds.cloud_service_request;" parent="1" vertex="1">
          <mxGeometry x="-566.15" y="209" width="60.15" height="54" as="geometry" />
        </mxCell>
        <mxCell id="Ihpz_ery8-bUaTA76cwm-34" value="" style="shape=image;verticalLabelPosition=bottom;labelBackgroundColor=default;verticalAlign=top;aspect=fixed;imageAspect=0;image=data:image/png,iVBORw0KGgoAAAANSUhEUgAAADAAAAAwCAYAAABXAvmHAAAACXBIWXMAAAsTAAALEwEAmpwYAAABi0lEQVR4nO2XTW7CQAyF36JZFTbtrUgWvQUr2DXhdlVJuqC9ULMh1UiOZFkFZmLnh9afNBIaMsN7E+OxAcdxHAUZgAOAhkZFc3fBGsARQCfGO4AVFs4jgLdfxPfjgwwukiCsZmLPAEoKnzObry3eRAHgE0B75bT60dKzeaL4Hft+b2miiBB9abxEhE0QGgRLtsLE4HD6Uhg4ib1WN05eYvImeNg8RTz/zJ7/ZvMZZZZY8ZdMhD0ekAA/Uc2awwDxPTth4hUzGGjYXMg2qZQilFRitAZCqkylYuvDxacSM2RNFZF5Yv8Hs4RQJkqGWBN7If4415845Q4wvQssDcxykXXGBmJMbIX4RlPU8YssXFJDLzLJWmSm85ViTlWRWpYSt0x0YqjFa4u5zVIampxOM7acPkWK5ym2pBOv6XNSqnSWTmHUkVl3dpN2ZNad3eRpdMx0PElHZrVPMvwkNGus9knGDRD+BobiIUR4CP3bEGqNOrKxOru/X0rkih/ejLDPrB3Z2J2d4zi4U34AJZ1A3nmW1JAAAAAASUVORK5CYII=;" parent="1" vertex="1">
          <mxGeometry width="48" height="48" as="geometry" />
        </mxCell>
        <mxCell id="-KhQLRqO_MwmeqYD8F9i-5" style="edgeStyle=orthogonalEdgeStyle;rounded=0;orthogonalLoop=1;jettySize=auto;html=1;" edge="1" parent="1" source="Ihpz_ery8-bUaTA76cwm-35" target="Ihpz_ery8-bUaTA76cwm-37">
          <mxGeometry relative="1" as="geometry">
            <Array as="points">
              <mxPoint x="-260" y="99" />
              <mxPoint x="-260" y="180" />
              <mxPoint x="-780" y="180" />
              <mxPoint x="-780" y="230" />
            </Array>
          </mxGeometry>
        </mxCell>
        <mxCell id="Ihpz_ery8-bUaTA76cwm-35" value="ZFPNP021&lt;br&gt;IPL - E - P&amp;amp;L Extraction (PL_OPER)" style="sketch=0;shadow=0;dashed=0;html=1;strokeColor=none;labelPosition=center;verticalLabelPosition=bottom;verticalAlign=top;outlineConnect=0;align=center;shape=mxgraph.office.databases.database_cube;fillColor=#2072B8;fontSize=11;" parent="1" vertex="1">
          <mxGeometry x="-394.85" y="73" width="47" height="52" as="geometry" />
        </mxCell>
        <mxCell id="Ihpz_ery8-bUaTA76cwm-41" style="edgeStyle=orthogonalEdgeStyle;rounded=0;orthogonalLoop=1;jettySize=auto;html=1;" parent="1" source="Ihpz_ery8-bUaTA76cwm-37" target="Ihpz_ery8-bUaTA76cwm-32" edge="1">
          <mxGeometry relative="1" as="geometry" />
        </mxCell>
        <mxCell id="Ihpz_ery8-bUaTA76cwm-37" value="ZFPNP021_CO_Q0001&lt;br&gt;IPL - N - P&amp;amp;L Extraction (PL_OPER)" style="sketch=0;shadow=0;dashed=0;html=1;strokeColor=#6c8ebf;fillColor=#dae8fc;labelPosition=center;verticalLabelPosition=bottom;verticalAlign=top;outlineConnect=0;align=center;shape=mxgraph.office.databases.monitoring_store;gradientColor=#7ea6e0;fontSize=10;" parent="1" vertex="1">
          <mxGeometry x="-760" y="207" width="58" height="58" as="geometry" />
        </mxCell>
        <mxCell id="Ihpz_ery8-bUaTA76cwm-42" value="SAC&lt;br&gt;GFC Main (Staging)" style="sketch=0;pointerEvents=1;shadow=0;dashed=0;html=1;strokeColor=none;fillColor=#505050;labelPosition=center;verticalLabelPosition=bottom;outlineConnect=0;verticalAlign=top;align=center;shape=mxgraph.office.clouds.private_cloud;" parent="1" vertex="1">
          <mxGeometry x="-408.09000000000003" y="214.5" width="73.49" height="43" as="geometry" />
        </mxCell>
        <mxCell id="Ihpz_ery8-bUaTA76cwm-43" style="edgeStyle=orthogonalEdgeStyle;rounded=0;orthogonalLoop=1;jettySize=auto;html=1;" parent="1" source="Ihpz_ery8-bUaTA76cwm-32" target="Ihpz_ery8-bUaTA76cwm-42" edge="1">
          <mxGeometry relative="1" as="geometry">
            <mxPoint x="-330" y="250" as="targetPoint" />
          </mxGeometry>
        </mxCell>
      </root>
    </mxGraphModel>
  </diagram>
</mxfile>
